<svg width="339" height="96" viewBox="0 0 339 96" fill="none" xmlns="http://www.w3.org/2000/svg">
<rect x="243" width="96" height="96" fill="#0E8D94"/>
<path d="M259 28.5H271.5M284.5 28.5H271.5M271.5 28.5V67.5" stroke="white" stroke-width="8" stroke-linecap="round" stroke-linejoin="round"/>
<path d="M297.5 28V53.5M297.5 68V53.5M297.5 53.5L307 43.1915M321 28L307 43.1915M307 43.1915L322.5 68" stroke="white" stroke-width="8" stroke-linecap="round" stroke-linejoin="round"/>
<path d="M4.7168 77V27.2344H17.0215C19.1634 27.2344 21.18 27.485 23.0713 27.9863C24.9626 28.4648 26.6829 29.137 28.2324 30.0029C29.9186 30.8916 31.4111 32.0081 32.71 33.3525C34.0316 34.6969 35.1367 36.2008 36.0254 37.8643C36.9368 39.596 37.6432 41.4987 38.1445 43.5723C38.6458 45.6458 38.8965 47.8561 38.8965 50.2031V54.0996C38.8965 56.3555 38.6572 58.4974 38.1787 60.5254C37.723 62.5306 37.0622 64.3649 36.1963 66.0283C35.3532 67.6462 34.3278 69.1159 33.1201 70.4375C31.9352 71.7591 30.6136 72.887 29.1553 73.8213C27.5146 74.8467 25.6917 75.6328 23.6865 76.1797C21.7041 76.7266 19.5736 77 17.2949 77H4.7168ZM13.0225 33.9336V70.335H17.2949C18.7533 70.335 20.0863 70.1641 21.2939 69.8223C22.5244 69.4577 23.6296 68.945 24.6094 68.2842C25.612 67.6006 26.5007 66.7461 27.2754 65.7207C28.0729 64.6725 28.7223 63.4762 29.2236 62.1318C29.6566 60.9925 29.987 59.7507 30.2148 58.4062C30.4427 57.0618 30.5566 55.6263 30.5566 54.0996V50.1348C30.5566 48.6309 30.4427 47.2067 30.2148 45.8623C29.987 44.5179 29.6566 43.276 29.2236 42.1367C28.6768 40.7467 27.9476 39.4935 27.0361 38.377C26.1247 37.2376 25.0423 36.3148 23.7891 35.6084C22.8776 35.0843 21.8522 34.6855 20.7129 34.4121C19.5736 34.1159 18.3431 33.9564 17.0215 33.9336H13.0225ZM51.435 58.167C51.435 55.4782 51.8223 52.9945 52.5971 50.7158C53.3718 48.4144 54.4997 46.4206 55.9809 44.7344C57.4392 43.0482 59.2279 41.7266 61.3471 40.7695C63.4662 39.8125 65.8816 39.334 68.5932 39.334C71.3048 39.334 73.7201 39.8125 75.8393 40.7695C77.9812 41.7266 79.7927 43.0482 81.2738 44.7344C82.7322 46.4206 83.8487 48.4144 84.6234 50.7158C85.3982 52.9945 85.7855 55.4782 85.7855 58.167V58.8848C85.7855 61.5964 85.3982 64.0915 84.6234 66.3701C83.8487 68.6488 82.7322 70.6312 81.2738 72.3174C79.8155 74.0036 78.0154 75.3252 75.8734 76.2822C73.7543 77.2393 71.3503 77.7178 68.6615 77.7178C65.9499 77.7178 63.5232 77.2393 61.3812 76.2822C59.2393 75.3252 57.4392 74.0036 55.9809 72.3174C54.4997 70.6312 53.3718 68.6488 52.5971 66.3701C51.8223 64.0915 51.435 61.5964 51.435 58.8848V58.167ZM59.6039 58.8848C59.6039 60.5482 59.7748 62.1204 60.1166 63.6016C60.4812 65.0827 61.0395 66.3815 61.7914 67.498C62.5206 68.6146 63.4548 69.5033 64.5941 70.1641C65.7335 70.8021 67.0893 71.1211 68.6615 71.1211C70.1882 71.1211 71.5212 70.8021 72.6605 70.1641C73.7999 69.5033 74.7341 68.6146 75.4633 67.498C76.1924 66.3815 76.7279 65.0827 77.0697 63.6016C77.4343 62.1204 77.6166 60.5482 77.6166 58.8848V58.167C77.6166 56.5492 77.4343 54.9997 77.0697 53.5186C76.7051 52.0374 76.1697 50.7386 75.4633 49.6221C74.7113 48.5055 73.7657 47.6169 72.6264 46.9561C71.5098 46.2952 70.1654 45.9648 68.5932 45.9648C67.0437 45.9648 65.6993 46.2952 64.56 46.9561C63.4434 47.6169 62.5206 48.5055 61.7914 49.6221C61.0395 50.7386 60.4812 52.0374 60.1166 53.5186C59.7748 54.9997 59.6039 56.5492 59.6039 58.167V58.8848ZM105.228 40.0176L105.468 44.085C106.174 42.6038 107.142 41.4417 108.373 40.5986C109.626 39.7555 111.13 39.334 112.885 39.334C113.796 39.334 114.616 39.4365 115.346 39.6416C116.075 39.8467 116.701 40.1657 117.225 40.5986C117.636 40.9176 118 41.305 118.319 41.7607C118.638 42.1937 118.912 42.695 119.139 43.2646C119.458 42.7406 119.823 42.2507 120.233 41.7949C120.643 41.3392 121.088 40.9518 121.566 40.6328C122.181 40.2227 122.865 39.9036 123.617 39.6758C124.392 39.4479 125.235 39.334 126.146 39.334C127.331 39.334 128.414 39.5391 129.393 39.9492C130.396 40.3366 131.262 40.9404 131.991 41.7607C132.72 42.6266 133.278 43.7546 133.666 45.1445C134.076 46.5117 134.281 48.1637 134.281 50.1006V77H126.762V50.0322C126.762 49.3031 126.682 48.6878 126.522 48.1865C126.363 47.6624 126.135 47.2409 125.839 46.9219C125.542 46.6257 125.178 46.4092 124.745 46.2725C124.335 46.1357 123.879 46.0674 123.378 46.0674C122.854 46.0674 122.398 46.1357 122.011 46.2725C121.623 46.4092 121.281 46.6029 120.985 46.8535C120.712 47.0814 120.484 47.3548 120.302 47.6738C120.119 47.9701 119.983 48.3118 119.891 48.6992C119.891 48.7904 119.891 48.9043 119.891 49.041C119.891 49.1549 119.891 49.3258 119.891 49.5537V77H112.509V49.998C112.509 49.2689 112.429 48.6536 112.269 48.1523C112.133 47.6283 111.916 47.2181 111.62 46.9219C111.324 46.6257 110.971 46.4092 110.56 46.2725C110.173 46.1357 109.729 46.0674 109.227 46.0674C108.68 46.0674 108.191 46.1471 107.758 46.3066C107.347 46.4434 106.994 46.6598 106.698 46.9561C106.47 47.1611 106.265 47.4004 106.083 47.6738C105.923 47.9473 105.775 48.2549 105.638 48.5967V77H98.1189V40.0176H105.228ZM165.482 77.6836C162.747 77.6836 160.241 77.2279 157.962 76.3164C155.706 75.4049 153.769 74.1403 152.152 72.5225C150.534 70.9274 149.28 69.0475 148.392 66.8828C147.526 64.6953 147.093 62.3369 147.093 59.8076V58.4062C147.093 55.5124 147.549 52.8919 148.46 50.5449C149.372 48.1979 150.625 46.1927 152.22 44.5293C153.815 42.8659 155.661 41.5898 157.757 40.7012C159.876 39.7897 162.132 39.334 164.525 39.334C167.191 39.334 169.549 39.7897 171.6 40.7012C173.651 41.5898 175.371 42.8317 176.761 44.4268C178.151 46.0446 179.199 47.9701 179.905 50.2031C180.612 52.4362 180.965 54.8743 180.965 57.5176V61.0381H155.33V61.209C155.581 62.8268 155.968 64.1826 156.492 65.2764C157.016 66.3701 157.734 67.3499 158.646 68.2158C159.557 69.1273 160.628 69.8337 161.859 70.335C163.112 70.8363 164.479 71.0869 165.96 71.0869C167.988 71.0869 169.879 70.6995 171.634 69.9248C173.389 69.1273 174.835 67.9993 175.975 66.541L180.35 70.7793C179.119 72.5566 177.228 74.1517 174.676 75.5645C172.147 76.9772 169.082 77.6836 165.482 77.6836ZM164.49 45.9648C163.328 45.9648 162.246 46.1813 161.243 46.6143C160.264 47.0244 159.386 47.6169 158.612 48.3916C157.837 49.1891 157.187 50.1462 156.663 51.2627C156.139 52.3792 155.752 53.6439 155.501 55.0566H172.899V54.5098C172.899 53.4388 172.705 52.3792 172.318 51.3311C171.93 50.2601 171.383 49.3258 170.677 48.5283C169.993 47.7536 169.127 47.1383 168.079 46.6826C167.054 46.2041 165.858 45.9648 164.49 45.9648ZM220.027 66.9854C220.027 66.3473 219.879 65.7777 219.583 65.2764C219.309 64.7751 218.842 64.2965 218.181 63.8408C217.475 63.4307 216.552 63.0433 215.413 62.6787C214.273 62.3141 212.849 61.9723 211.14 61.6533C208.998 61.2204 207.039 60.6849 205.261 60.0469C203.507 59.4089 201.991 58.6341 200.715 57.7227C199.462 56.8568 198.482 55.8314 197.776 54.6465C197.07 53.4616 196.716 52.083 196.716 50.5107C196.716 49.0068 197.07 47.5827 197.776 46.2383C198.505 44.8711 199.542 43.6748 200.886 42.6494C202.208 41.624 203.803 40.8151 205.671 40.2227C207.563 39.6302 209.659 39.334 211.961 39.334C214.421 39.334 216.632 39.6416 218.591 40.2568C220.551 40.8493 222.214 41.6696 223.582 42.7178C224.926 43.766 225.963 45.0078 226.692 46.4434C227.421 47.8789 227.786 49.4284 227.786 51.0918H219.617C219.617 50.4082 219.469 49.7588 219.172 49.1436C218.899 48.5055 218.489 47.9359 217.942 47.4346C217.304 46.8421 216.484 46.375 215.481 46.0332C214.478 45.6686 213.305 45.4863 211.961 45.4863C210.73 45.4863 209.648 45.623 208.713 45.8965C207.802 46.1471 207.05 46.5003 206.458 46.9561C205.865 47.3662 205.421 47.8561 205.125 48.4258C204.828 48.9727 204.68 49.5537 204.68 50.1689C204.68 50.807 204.806 51.388 205.056 51.9121C205.307 52.4134 205.751 52.8577 206.389 53.2451C206.982 53.6553 207.802 54.0312 208.85 54.373C209.921 54.7148 211.266 55.0225 212.883 55.2959C215.139 55.7061 217.201 56.2074 219.07 56.7998C220.938 57.3923 222.533 58.1214 223.855 58.9873C225.177 59.8988 226.202 60.9697 226.931 62.2002C227.66 63.4307 228.025 64.889 228.025 66.5752C228.025 68.2158 227.638 69.7197 226.863 71.0869C226.111 72.4541 225.04 73.6276 223.65 74.6074C222.237 75.5872 220.551 76.3506 218.591 76.8975C216.632 77.4443 214.456 77.7178 212.063 77.7178C209.397 77.7178 207.027 77.3646 204.954 76.6582C202.903 75.9518 201.183 75.0176 199.793 73.8555C198.38 72.7161 197.309 71.4059 196.58 69.9248C195.851 68.4437 195.486 66.9398 195.486 65.4131H203.416C203.484 66.5524 203.78 67.5208 204.304 68.3184C204.851 69.0931 205.535 69.7197 206.355 70.1982C207.153 70.6995 208.064 71.0641 209.089 71.292C210.115 71.4971 211.152 71.5996 212.2 71.5996C213.613 71.5996 214.843 71.4515 215.891 71.1553C216.962 70.859 217.817 70.4603 218.455 69.959C218.979 69.5488 219.366 69.1045 219.617 68.626C219.89 68.1247 220.027 67.5778 220.027 66.9854Z" fill="#0E8D94"/>
</svg>
